<svg xmlns="http://www.w3.org/2000/svg" width="6444" height="1930" viewBox="0 0 6444 1930"><g transform="translate(2882 -1493)"><rect width="6444" height="1930" transform="translate(-2882 1493)" fill="none"/><g transform="translate(-2686.302 1756.448)"><g transform="translate(-238.698 2060.208)"><path d="M4914.905-402.438s603.468,72.853,795.569-202.784c249.248-357.613-262.813-628.758-655.5-578.239-855.75,110.079-845.038-1515.806-2004.762-591.095-306.8,244.637-720.344-194.137-1221.023,347.4-117,126.558-832.12-118.054-1188.014-17.894C-55.334-1249.022,263.138-399.133,760.826-395.8s4154.072-6.64,4154.072-6.64" fill="#ebf2f9"/><path d="M4910.46-397.44H4232.727V-2033.319H4910.46V-397.44" fill="#a6c7f9"/><path d="M4232.123-2033.318V-397.439h120.814V-2033.318H4232.123" fill="#699dee"/><path d="M5060.225-397.439H4382.5V-2033.316h677.729V-397.439" fill="#d2e4ff"/><path d="M4912.058-2033.319V-397.441h125.76V-2033.319h-125.76" fill="#a6c7f9"/><path d="M3716.905-414.493c-1.1,13.868-20.693,13.881-42.9,11.133s-89.239-7.027-90.708-11.493c-1.308-3.946,13.7-7.16,29.754-10.945,2.019-.468,4.037-.961,6.079-1.454a81.686,81.686,0,0,0,45.744-29.612c13.512-17.3,25.831-96.053,25.831-96.053l48.634,9.064s-28.309,67.508-31.2,89.655c-1.307,9.933,5.758,16.559,7.41,25.253.871,4.733,1.766,9.559,1.354,14.453" fill="#b77446"/><path d="M3716.893-414.491c-1.117,13.866-20.707,13.879-42.9,11.134-15.211-1.881-17.241.185-27.047,1.745h-39.021c-16.99-2.933-23.512-9.813-24.63-13.239-1.323-3.948,13.683-7.161,29.761-10.947l.182.292a87.138,87.138,0,0,0,45.589,8.52c20.913-1.945,42.282-10.507,56.718-11.959.866,4.732,1.756,9.56,1.346,14.454" fill="#365da4"/><path d="M3673.413-496.2s12.74,8.425,24.719,10.6c17.979,3.267,26.315-.36,26.315-.36s86.4-216.945,81.468-290.267c-.119-1.76-.19-3.627-.19-5.613-.167-12.719,1.667-29.665,4.834-49.172,1.167-7.161,2.5-14.655,4-22.4,3.453-18.08,7.74-37.572,12.455-57.452,2.072-8.759,4.239-17.587,6.43-26.415,21.719-86.731,48.271-172.21,48.271-172.21s-155.911-50.934-164.747-3.334c-3.382,18.266-14.646,91.373-9.573,203.145,4.1,89.973,1.429,160.16-6.334,241.612-6.835,71.533-18.528,133.055-27.648,171.867" fill="#365da4"/><path d="M3805.719-781.835c-.141-12.721,1.669-29.668,4.845-49.174,1.152-7.161,2.492-14.654,4-22.4,3.433-18.078,7.738-37.573,12.464-57.452,2.07-8.76,4.21-17.587,6.42-26.413-3.081-26.467-5.55-44.626-5.55-44.626s-64.745,87.932-22.177,200.066" fill="#285493"/><path d="M3913.6-414.491c-1.1,13.867-20.7,13.879-42.886,11.132-22.235-2.747-89.254-7.026-90.719-11.492-1.321-3.948,13.687-7.16,29.751-10.947,2.017-.466,4.058-.96,6.1-1.453,18.105-4.466,30.159-17.906,45.72-29.614,14.743-11.079,4.418-64.838,4.418-64.838l45.743-16.333s-6.892,54.078-6.892,83.839c0,10.013,5.763,16.559,7.42,25.254.865,4.733,1.753,9.559,1.345,14.453" fill="#b77446"/><path d="M3913.6-414.491c-1.1,13.867-20.7,13.879-42.886,11.132-15.224-1.88-17.265.187-27.062,1.748h-39.02c-17-2.934-23.509-9.814-24.637-13.24-1.321-3.948,13.687-7.16,29.751-10.947l.192.293a87.171,87.171,0,0,0,45.6,8.52c20.914-1.945,42.285-10.505,56.717-11.958.864,4.733,1.753,9.559,1.344,14.453" fill="#365da4"/><path d="M3787.8-1126.475s50.736,252.839,59.3,390.438,19.263,251.533,19.263,251.533a67.194,67.194,0,0,0,23.763,3.266,87.61,87.61,0,0,0,24.054-4.906s50.274-207.026,33.613-289.905c-16.636-82.867-2.773-159.306,5.229-228.052,11.455-98.56-32.64-144.36-63.432-175.6-31.156-31.6-101.788,53.226-101.788,53.226" fill="#365da4"/><path d="M3751.841-1589.553c-5.03-41.163,7.82-107.027,89.972-96.5,82.177,10.526,108.051,91.267,91.491,127.166-16.585,35.9,23.856,44.557,36.531,83.166,10.907,33.165,14.717,74.345,32.348,92.825,56.877,59.581-54.611,151.209-121.8,131.887-122.419-35.2-138.183-40.439-133.824-136.624,2.216-49.279,40.541-68.372,16.211-82.628-58.794-34.442.5-26.145-10.932-119.289" fill="#aa443e"/><path d="M3776.721-1457.365l24.3,36.452,48.966-2.409,22.618-58.465s-6.985-1.321-10.216-74.223l-61.13,18.643a119.04,119.04,0,0,1-1.069,39.7c-3.018,14.435-9.646,29.838-23.473,40.3" fill="#d9935c"/><path d="M3769.908-1483.086c3.146,0,60.723-19.259,142.911,14.221,0,0-39.017,223.264-22.234,265.877a449.968,449.968,0,0,1,23.122,80.44l-181.856,2.255s2.545-146.267-5.834-198.029,43.891-164.765,43.891-164.765" fill="#d9935c"/><path d="M3912.7-1220.4a78.535,78.535,0,0,1-2.084-11.293c-2.4-26.946,1.672-48.92,8.432-70.48,0-.015.024-.041.024-.068.1-.332.218-.678.339-1.013.17-.572.412-1.439.678-2.559a.138.138,0,0,1,.024-.094c.242-1.028.533-2.253.872-3.654.073-.465.194-.945.315-1.48,4.676-20.959,14.95-73.615,17.639-80.792a67.573,67.573,0,0,0,2.786-11.5c2.762-15.854,3.974-41.069-5.282-51.607-12.866-14.666-57.037-25.2-57.037-25.2-8.989,14.08-39.4,48.508-77.584,42.216-22.049-3.646-25.466-46.589-25.466-46.589-23.721,3.266-29.779,6.871-29.779,6.871s-56.867,35.473-137.165,148.413c-2.568,3.586-8.6,3.172-23.454.305-18.875-3.68-57.4-3.2-115.552-11.739,0,0-1.987,1.449-2.544,7.807-1.187,14.039-2.616,18.187-2.616,18.187s38.307,18.054,79.013,30.946c14.417,4.56,29.464,8.839,43.832,12.052,13.4,2.988,26.168,5.069,37.29,5.587,0,0,46.4-17.826,91.371-67.371,2.617,41.586,8.408,95.291,4.846,134.517-2.011,22.335-17.3,97.467-13.472,109.974,8,26.04,69.346,27.387,124.129,24.666q1.781-.08,3.562-.2c8.5-.48,16.84-1.228,24.642-2.093a336.4,336.4,0,0,0,35.666-5.694c10.71-2.44,24.109-5.961,35.036-11.226,8.383-4.042,15.265-9.108,18.293-15.507-5.258-28.346-30.651-90.079-36.757-121.386" fill="#80bdcc"/><path d="M3793.37-1148.251c10.37,35.2,16.4,64.173,42.451,83.76,8.5-.48,16.84-1.229,24.642-2.094a340.856,340.856,0,0,0,35.666-5.68c10.709-2.454,24.108-5.975,35.036-11.24,8.384-4.042,15.265-9.108,18.294-15.507-5.258-28.346-30.651-90.079-36.757-121.386a72.93,72.93,0,0,1-1.212-8.214c-2.253-28.039,1.381-51.079,7.56-73.559,0-.015.024-.041.024-.068.339-1.2.678-2.372,1.018-3.571a.139.139,0,0,1,.024-.095c.218-.773.509-2.026.872-3.654.073-.465.194-.945.315-1.48,4.167-19.866,15.119-82.185,17.906-90.317a85.1,85.1,0,0,0,2.738-12.413l-21.9-21.068s-125.632,53.645-153.3,127.638c-27.7,73.988,11.727,108.453,26.628,158.948" fill="#5f9aa8"/><path d="M3544.27-1283.717c27.808,8.815,58.059,16.548,81.117,17.641,0,0,47.008-18.054,92.259-68.35,1.9-8.548,3.744-22.888-6.6-18.751-14.543,5.8-68.241,74.768-88.583,76.22-14.543,1.027-55.889-3.879-78.195-6.76" fill="#5f9aa8"/><path d="M3643.5-1303.37s61.9,31.105,115.61,43.986c15.444,3.692,30.325,6.319,43.008,6.92,0,0,58.965-16.908,101.8-79.48,79.248-115.719,19.4-132.082,19.4-132.082s-56.839,35.472-137.162,148.416c-2.811,3.947-9.848,3.052-28.126-.64-19.5-3.934-58.354-3.468-111.969-11.346,0,0-.9,2-1.441,8.36-1.2,14.027-1.124,15.867-1.124,15.867" fill="#80bdcc"/><path d="M3585.965-1328.92c-18.675-3.64-58.428-3.933-115.6-12.213a99.8,99.8,0,0,1-14.2-5.625c-12.259-6.127-44.935-10.213-51.879-3.676s7.364,33.086,37.173,33.9a191.249,191.249,0,0,1,24.055,1.986c3.153,1.466,39.841,18.492,78.757,30.826,14.42,4.562,29.456,8.841,43.832,12.054,5.777-25.667,1.786-45.667-2.139-57.253" fill="#a86337"/><path d="M3800.173-1497.662c25.259-2.045,62.2-58.343,62.2-58.343l-61.111,18.644a119,119,0,0,1-1.09,39.7" fill="#cc7c46"/><path d="M3785.265-1533.234s73.179,14.7,81.628-31.014,23.582-74.6-22.794-85.92c-46.352-11.316-58.691,4.447-65.208,19.016-6.54,14.574-12.459,92.918,6.373,97.918" fill="#d9935c"/><path d="M3821.02-1661.58s-1.269,15.505,22.793,41.816,18.316,73.213,18.316,73.213,40.56-76.241,18.915-100.584c-21.621-24.343-60.025-14.445-60.025-14.445" fill="#aa443e"/><path d="M3850.442-1681.75s-36.379-12.175-72.5,23.4c-15.544,15.329-13.205,45.454-4.866,62.937,0,0,12.8-37.46,36.095-45.631,23.268-8.171,41.268-40.7,41.268-40.7" fill="#aa443e"/><path d="M3808.04-1555.722s-1.939,5.427-15.723,2.965c0,0-11.564-2.065-10.513-8.153,0,0,11.8-3.058,26.236,5.189" fill="#fff"/><path d="M3562.073-1432.9l-155.827,3.511,35.777,216.486,157.727,5.121L3562.073-1432.9" fill="#a6c7f9"/><path d="M3759.1-1259.383c-11.785-23.32-7.172-43.693-1.061-56.868-19.51-3.932-58.624-5.639-112.242-13.519v.095a119.809,119.809,0,0,1-21.978-7.984c-13.076-6.54-47.969-10.9-55.4-3.923-7.4,6.974,7.864,35.319,39.713,36.2,17.619.48,28.274,2.292,34.293,3.826,5.3,2.44,65.381,29.879,116.671,42.173" fill="#b77446"/><path d="M2327.383-1171.519V-798H2700.9v-373.52h-373.52" fill="#4a75cb"/><path d="M2442.55-1171.521V-798h373.518v-373.519H2442.55" fill="#699dee"/><path d="M2645.62-798v400.891h400.908V-798H2645.62" fill="#d86713"/><path d="M2769.23-798v400.892h400.894V-798H2769.23" fill="#f1a34f"/><path d="M2769.233-798,2645.62-723.065V-798h123.613" fill="#c95c12"/><path d="M5985.849-412.574c-1.143,14.056-133.884,4.162-135.358-.358-1.327-4,13.9-7.255,30.153-11.1,2.028-.464,4.092-.973,6.156-1.463a82.748,82.748,0,0,0,46.3-30c13.713-17.521,26.172-97.291,26.172-97.291l49.285,9.2s-28.678,68.376-31.627,90.8c-1.327,10.067,5.824,16.776,7.52,25.59.885,4.785,1.77,9.676,1.4,14.623" fill="#b77446"/><path d="M5985.833-412.573c-.478,5.747-4.041,9.134-9.659,10.959h-36.615a53.137,53.137,0,0,0-13.662,0h-59.2c-10.76-3.426-15.278-8.517-16.2-11.319-1.359-4,13.882-7.253,30.151-11.091l.183.3a88.345,88.345,0,0,0,46.2,8.627c21.154-1.972,42.786-10.639,57.4-12.108.918,4.789,1.8,9.681,1.4,14.628" fill="#365da4"/><path d="M5941.81-495.333s12.872,8.535,25.026,10.747c18.194,3.307,26.649-.374,26.649-.374s87.5-219.745,82.515-294c-.113-1.785-.188-3.677-.227-5.692-.113-12.879,1.737-30.054,4.908-49.811,1.208-7.24,2.566-14.827,4.077-22.682,3.51-18.307,7.852-38.068,12.607-58.2,2.114-8.867,4.3-17.813,6.53-26.748,22.007-87.853,48.883-174.441,48.883-174.441s-157.935-51.585-166.88-3.371c-3.4,18.5-14.835,92.545-9.7,205.759,4.152,91.144,1.473,162.226-6.417,244.733-6.908,72.452-18.76,134.772-27.971,174.078" fill="#365da4"/><path d="M6075.793-784.652c-.15-12.878,1.686-30.051,4.906-49.812,1.2-7.242,2.509-14.829,4.044-22.682,3.519-18.3,7.863-38.065,12.62-58.2,2.1-8.864,4.306-17.814,6.516-26.745-3.108-26.8-5.617-45.2-5.617-45.2s-65.57,89.064-22.468,202.638" fill="#285493"/><path d="M6185.07-412.572c-1.138,14.052-133.842,4.159-135.359-.361-1.328-4,13.889-7.252,30.168-11.092,2.049-.467,4.1-.975,6.147-1.469,18.367-4.52,30.586-18.147,46.334-30,14.914-11.229,4.478-65.669,4.478-65.669l46.334-16.545s-6.982,54.774-6.982,84.92c0,10.147,5.806,16.773,7.513,25.588.873,4.785,1.784,9.677,1.367,14.625" fill="#b77446"/><path d="M6185.07-412.572c-.456,5.745-4.022,9.134-9.639,10.959h-36.658a52.659,52.659,0,0,0-13.623,0h-59.2c-10.815-3.427-15.293-8.519-16.241-11.32-1.328-4,13.889-7.252,30.168-11.092l.189.307a88.4,88.4,0,0,0,46.183,8.625c21.175-1.973,42.843-10.641,57.453-12.105.873,4.785,1.783,9.677,1.366,14.625" fill="#365da4"/><path d="M6057.656-1133.73s51.384,256.091,60.07,395.466c8.646,139.386,19.476,254.771,19.476,254.771a68.075,68.075,0,0,0,24.1,3.321,88.624,88.624,0,0,0,24.334-4.974s50.926-209.691,34.053-293.637c-16.835-83.934-2.793-161.375,5.28-230.988,11.631-99.839-33.02-146.239-64.241-177.866-31.565-32.029-103.077,53.906-103.077,53.906" fill="#365da4"/><path d="M6021.2-1602.776c-5.089-41.693,7.925-108.412,91.139-97.748s109.438,92.441,92.655,128.8,24.164,45.131,37.022,84.236c11.033,33.6,14.879,75.305,32.75,94.026,57.613,60.356-55.282,153.154-123.384,133.582-123.967-35.64-139.935-40.962-135.544-138.38,2.252-49.913,41.1-69.256,16.432-83.7-59.555-34.886.505-26.479-11.072-120.824" fill="#163560"/><path d="M6071.209-1549.933s9.46,55.054-24.8,81.034l24.65,36.955,49.563-2.431,22.878-59.219s-7.01-1.379-10.365-75.192l-61.925,18.853" fill="#a86337"/><path d="M6055.062-1545.732s74.09,14.886,82.671-31.417c8.542-46.3,23.891-75.561-23.059-87.026-46.987-11.461-59.461,4.5-66.077,19.264s-12.587,94.114,6.464,99.179" fill="#b77446"/><path d="M6039.525-1494.938c3.188,0,61.472-19.5,144.726,14.408,0,0-39.5,226.146-22.541,269.305a454.971,454.971,0,0,1,23.451,81.466l-184.189,2.3s2.58-148.148-5.919-200.585,44.473-166.889,44.473-166.889" fill="#a86337"/><path d="M6184.139-1228.866a77.076,77.076,0,0,1-2.1-11.439c-2.443-27.294,1.68-49.546,8.55-71.386v-.069c.114-.347.229-.691.344-1.038.191-.573.419-1.454.687-2.588a.09.09,0,0,0,.039-.092c.267-1.027.534-2.282.877-3.695.076-.466.229-.958.3-1.508,4.771-21.229,15.153-74.561,17.9-81.828a69.472,69.472,0,0,0,2.825-11.645c2.786-16.057,4.008-41.6-5.343-52.275-13.054-14.855-59.123-25.87-59.123-25.87-9.084,14.26-38.588,49.481-77.252,43.107-22.366-3.695-25.8-47.191-25.8-47.191-24.008,3.309-30.153,6.962-30.153,6.962s-57.6,35.928-138.931,150.325c-2.6,3.641-8.741,3.221-23.741.309-19.122-3.729-58.168-3.244-117.062-11.889,0,0-2.022,1.469-2.595,7.908-1.183,14.21-2.634,18.424-2.634,18.424s38.778,18.279,80.038,31.332c14.581,4.641,29.848,8.958,44.39,12.214,13.55,3.027,26.526,5.134,37.748,5.664,0,0,47.023-18.053,92.558-68.241,2.672,42.122,8.55,96.523,4.924,136.256-2.062,22.615-17.519,98.718-13.664,111.386,8.13,26.374,70.267,27.748,125.764,24.989,1.183-.053,2.4-.122,3.626-.2,8.588-.492,17.022-1.24,24.924-2.118a341.827,341.827,0,0,0,36.106-5.76c10.878-2.481,24.428-6.042,35.5-11.389,8.512-4.092,15.458-9.214,18.549-15.706-5.343-28.706-31.068-91.225-37.251-122.947" fill="#80bdcc"/><path d="M6091.266-1675.731s-1.288,15.7,23.067,42.354c24.394,26.647,18.56,74.156,18.56,74.156s41.1-77.224,19.2-101.882c-21.931-24.658-60.831-14.628-60.831-14.628" fill="#163560"/><path d="M6121.07-1696.167s-36.839-12.332-73.416,23.7c-15.734,15.524-13.368,46.04-4.919,63.745,0,0,12.956-37.943,36.539-46.22s41.8-41.229,41.8-41.229" fill="#163560"/><path d="M6078.146-1568.512s-1.977,5.493-15.922,3c0,0-11.746-2.092-10.665-8.26,0,0,11.97-3.095,26.587,5.262" fill="#fff"/><path d="M6063.26-1155.786c10.535,35.653,16.642,65,43.054,84.84,8.587-.492,17.022-1.24,24.923-2.118a341.825,341.825,0,0,0,36.107-5.76c10.877-2.481,24.428-6.053,35.5-11.389,8.511-4.092,15.458-9.214,18.549-15.706-5.344-28.706-31.069-91.225-37.252-122.947a83.008,83.008,0,0,1-1.221-8.321c-2.29-28.412,1.412-51.745,7.671-74.5v-.069c.344-1.214.688-2.412,1.031-3.626a.091.091,0,0,0,.038-.092c.229-.775.535-2.042.877-3.695.077-.466.229-.958.306-1.508,4.236-20.115,15.343-83.241,18.167-91.477.877-2.6-1.222-14.29-.344-19.79l-19.084-14.122s-127.252,54.336-155.268,129.283c-28.053,74.947,11.871,109.855,26.947,161" fill="#5f9aa8"/><path d="M5810.949-1293.008c28.188,8.93,58.8,16.758,82.174,17.879,0,0,47.63-18.28,93.458-69.235,1.911-8.659,3.785-23.182-6.726-18.993-14.7,5.88-69.091,75.732-89.672,77.2-14.737,1.055-56.633-3.932-79.234-6.85" fill="#5f9aa8"/><path d="M5911.435-1312.9s62.732,31.5,117.106,44.545c15.684,3.746,30.753,6.4,43.6,7.013,0,0,61.275-16.093,103.109-80.509,75-115.434,19.671-133.782,19.671-133.782s-57.595,35.929-138.962,150.332c-2.839,4-9.97,3.091-28.491-.64-19.748-4-59.089-3.52-113.386-11.5,0,0-.92,2.017-1.457,8.455-1.227,14.214-1.189,16.082-1.189,16.082" fill="#80bdcc"/><path d="M5853.186-1338.782c-18.914-3.689-59.151-3.977-117.116-12.37a103.245,103.245,0,0,1-14.383-5.7c-12.406-6.207-45.487-10.345-52.535-3.725-7.012,6.62,7.443,33.51,37.648,34.337a192.834,192.834,0,0,1,24.379,2.014c3.2,1.492,40.346,18.734,79.756,31.215,14.6,4.639,29.881,8.957,44.409,12.211,5.861-26,1.833-46.253-2.158-57.986" fill="#a86337"/><path d="M6028.551-1268.355c-11.946-23.615-7.249-44.252-1.072-57.586-19.75-4-59.4-5.733-113.692-13.7v.092a121.672,121.672,0,0,1-22.266-8.085c-13.24-6.628-48.6-11.044-56.106-3.976s7.953,35.776,40.2,36.671c17.864.481,28.664,2.334,34.766,3.88,5.363,2.467,66.24,30.254,118.167,42.707" fill="#b77446"/><path d="M1507.7-756.185v254.773h254.786V-756.185H1507.7" fill="#d86713"/><path d="M1586.263-756.185v254.773h254.786V-756.185H1586.263" fill="#f1a34f"/><path d="M1586.263-756.185l-78.56,47.627v-47.627Z" fill="#c95c12"/><path d="M1635.316-607.385h-98.773l4.16-11.547-4.16-12.453H1634.4l-6,12.92,6.92,11.08" fill="#ffd5ab"/><path d="M1585.93-631.385v24h-49.387l4.16-11.547-4.16-12.453h49.387" fill="#c95c12"/><path d="M1523.01-902.678v146.506h146.52V-902.678H1523.01" fill="#d86713"/><path d="M1568.183-902.678v146.506H1714.7V-902.678h-146.52" fill="#f1a34f"/><path d="M1568.183-902.678l-45.173,27.387v-27.387Z" fill="#c95c12"/><path d="M1626.209-871.571v115.386H1741.6V-871.571H1626.209" fill="#4a75cb"/><path d="M1661.8-871.571v115.386h115.373V-871.571H1661.8" fill="#699dee"/><path d="M1718.223-770.665l-42.813,8.547-4.347-21.76,42.813-8.547,4.347,21.76" fill="#ebf2f9"/><path d="M1682.556-842.158h-41.693l1.76-4.867-1.76-5.267h41.307l-2.533,5.467,2.92,4.667" fill="#ebf2f9"/><path d="M1661.716-852.291v10.133h-20.853l1.76-4.867-1.76-5.267h20.853" fill="#a6c7f9"/><path d="M1592.849-870.984h-49.28l2.08-5.76-2.08-6.213h48.813l-3,6.453,3.467,5.52" fill="#ffd5ab"/><path d="M1568.209-882.958v11.973h-24.64l2.08-5.76-2.08-6.213h24.64" fill="#c95c12"/><path d="M1592.849-782.5h-49.28l2.08-5.76-2.08-6.213h48.813l-3,6.44,3.467,5.533" fill="#ffd5ab"/><path d="M1568.209-794.478V-782.5h-24.64l2.08-5.76-2.08-6.213h24.64" fill="#c95c12"/><path d="M1724.3-704.092v202.679H1927V-704.092H1724.3" fill="#4a75cb"/><path d="M1786.8-704.092v202.679h202.693V-704.092H1786.8" fill="#699dee"/><path d="M1977.622-667.225l-48.547,9.693-4.933-24.68,48.56-9.693,4.92,24.68" fill="#ebf2f9"/><path d="M1813.716-672h-54.947l2.307-6.413-2.307-6.933H1813.2l-3.333,7.187,3.853,6.16" fill="#ebf2f9"/><path d="M1786.236-685.345V-672h-27.467l2.307-6.413-2.307-6.933h27.467" fill="#a6c7f9"/><path d="M1813.716-521.025h-54.947l2.307-6.413-2.307-6.933H1813.2l-3.333,7.187,3.853,6.16" fill="#ebf2f9"/><path d="M1786.236-534.372v13.347h-27.467l2.307-6.413-2.307-6.933h27.467" fill="#a6c7f9"/><path d="M1438.117-457.146a27.82,27.82,0,0,0-27.827,27.827,27.829,27.829,0,0,0,27.827,27.827,27.837,27.837,0,0,0,27.827-27.827,27.829,27.829,0,0,0-27.827-27.827" fill="#1c468a"/><path d="M1438.117-447.412a17.845,17.845,0,0,0-17.853,17.853,17.853,17.853,0,0,0,17.853,17.853,17.862,17.862,0,0,0,17.853-17.853,17.853,17.853,0,0,0-17.853-17.853" fill="#699dee"/><path d="M1998.155-457.146a27.82,27.82,0,0,0-27.827,27.827,27.829,27.829,0,0,0,27.827,27.827,27.829,27.829,0,0,0,27.827-27.827,27.82,27.82,0,0,0-27.827-27.827" fill="#1c468a"/><path d="M1998.155-447.412a17.853,17.853,0,0,0-17.853,17.853,17.862,17.862,0,0,0,17.853,17.853,17.854,17.854,0,0,0,17.854-17.853,17.845,17.845,0,0,0-17.854-17.853" fill="#699dee"/><path d="M2056.142-501.412h-569.2l-227.2-620.518a14.765,14.765,0,0,0-13.239-9.667l-75.752-3.12a14.758,14.758,0,0,0-15.339,14.133,14.741,14.741,0,0,0,14.125,15.333l65.9,2.72,220.1,601.118H1406.05a14.294,14.294,0,0,0-14.253,14.253v17.013a14.306,14.306,0,0,0,14.253,14.267h650.092a14.317,14.317,0,0,0,14.267-14.267v-17.013a14.306,14.306,0,0,0-14.267-14.253" fill="#1c468a"/><path d="M1160.709-1179.877s28.352,18.68,50.168,19.52,34.821,22.68,37.823,31.76-5.672,23.067-12.4,14.787c-10.16-12.507-30.924-2.747-50.749-19.133s-49.412-26.88-49.412-26.88l24.568-20.053" fill="#9e6138"/><path d="M907.89-1486.663s60.889,217.8,109.469,261.786c25.2,22.827,164.762,115.906,176.258,86.213,0,0,17.241-21.067,7.663-33.52,0,0-117.31-84.373-126.445-90.053-15.9-9.867,3.68-207.639-37.984-241.706s-105.716-42.867-128.961,17.28" fill="#d88029"/><path d="M1153.717-401.986s-4.547.16-11.973.373H1026.758a20.4,20.4,0,0,1-5.48-1.133c-10.333-4.92-5.56-50.48-5.56-50.48s44.733-37.267,51.533-9.56,43.987,39.48,65.08,42.467,21.387,18.333,21.387,18.333" fill="#233862"/><path d="M790.471-965.678c22.128,45.147,74.6,108.04,93.949,156.773,4.58,11.52,7.305,22.24,7.348,31.76.456,109.373,119.172,325.026,119.172,325.026,11.324,7.32,59.64-7.333,59.64-7.333s-5.6-47.933-33.335-213.519C1021.956-764.3,996.16-900.3,976.111-1003.918c-5.163-26.68-9.956-51.213-14.069-72.28-8.905-45.453-14.748-74.76-14.748-74.76l-46.036.76-124.336,2.053s-51.6,49.48,13.549,182.466" fill="#2b478b"/><path d="M790.471-965.678c22.128,45.147,74.6,108.04,93.949,156.773,27.429-58.04,69.044-146.266,91.69-195.013-5.163-26.68-9.956-51.213-14.069-72.28-17.887-21.907-40.893-49.973-60.784-74l-124.336,2.053s-51.6,49.48,13.549,182.466" fill="#233862"/><path d="M640.025-401.612H577.692c-5.813-4.533-10.787-12.427-12.907-23.4-3.613-18.627-25.04-27.973-30.213-43.12s17.213-37.68,17.213-37.68l7.52-10.547,38.987,7.493s3.973,27.133,3.68,47.613,7.467,42.227,25.8,45.453c13.333,2.347,13.28,10.12,12.253,14.187" fill="#233862"/><path d="M812.255-696.1c-23.363,42.413-195.7,239.4-195.7,239.4s-54.327-18.347-64-51.347c0,0,101.942-167.493,148.294-238.866,13.253-20.413,20.621-332.412,67.863-389.266,59.22-71.28,166.433,63.947,166.433,63.947s-33.548,109.12-43.979,143.48c-23.115,76.226-62.811,203.413-78.91,232.653" fill="#2b478b"/><path d="M1144.424-1163.584s28.353,18.68,50.169,19.507,34.821,22.68,37.823,31.773-5.672,23.067-12.4,14.773c-10.16-12.507-30.924-2.747-50.75-19.12s-49.411-26.893-49.411-26.893l24.567-20.04" fill="#ab7041"/><path d="M1041.387-1526.409c17.1-28.387,24.333-46.347,24.333-46.347l-40.165-70.453c-23.4,65.987-77.435,80.907-77.435,80.907s63.175,69.32,114.052,72.826a116.46,116.46,0,0,0-20.785-36.933" fill="#9c5f33"/><path d="M1079.987-1568.4s-79.646-16.947-68.328-66.386,8.66-84.92,59.991-76.187,56.856,29.853,57.093,47.266-27.747,98.44-48.756,95.306" fill="#ab7041"/><path d="M1010.887-1631.369s26.071-61.933,98.137-45.2c49.363,11.453,36.42-38.64,33.511-46.906,0,0-38.343-7.213-78-13.533-83.233-13.293-58.094,93.16-53.648,105.64" fill="#233862"/><path d="M1077.684-1416.156c-1.569,24.72-9.023,62.173-19.148,103.733-3.933,16.093-8.26,32.8-12.8,49.627-7.369,27.307-15.045,54.76-22.965,80.613l-.3.92c-.572,2.627-1.463,5.413-2.268,7.973-6.871,22.827-13.456,43.96-19.191,61.893-10.985,34.32-11.059,53.427-19.827,57.293-17.617,7.787-86.98-.56-128.541-18.573-35.116-14.96-88.622-60.04-88.348-82.733.316-26.307,35.617-105.506,59.017-197.986,28.871-112.96,92.909-203.16,146.314-221.76,3.987-1.293,8.249,7.08,23.728,21.947,14.3,13.72,32.317,22.293,49.365,24.107l10.168,16.973c13.773,24.28,27.344,55.64,24.789,95.973" fill="#e2923d"/><path d="M1045.739-1262.8c-3.935,16.093,4.537-16.827,0,0-7.369,27.307-15.045,54.76-22.965,80.613l-.3.92c-.572,2.627-1.463,5.413-2.268,7.973-6.871,22.827-13.456,43.96-19.191,61.893-111.072-141.08-48.083-310.039-48.083-310.039l92.8,158.64" fill="#d88029"/><path d="M890.168-1468.943s60.889,217.813,109.469,261.786c25.2,22.827,164.762,115.92,176.257,86.213,0,0,17.243-21.067,7.664-33.52,0,0-117.31-84.373-126.445-90.04-15.9-9.88,3.68-207.653-37.984-241.706s-105.716-42.88-128.961,17.267" fill="#e2923d"/><path d="M1054.871-1662.183s8.956-14.813,32.84-17.213c0,0-70.208,1.48-73.129,23.04s-3.695,24.987-3.695,24.987,37.092,1.52,43.984-30.813" fill="#233862"/><path d="M5570.217-1303.141s-38.615,17.958-80,31.053c-14.694,4.559-29.73,8.827-44.459,12.173-13.465,3.052-26.348,5.187-37.693,5.481a21.482,21.482,0,0,1-2.768-1.227c-10.423-4.562-51.191-23.733-90.729-67.266-3.042-3.657-6.425-7.31-9.5-11.267-2.46-2.744-4.887-29.833-6.732-58.146l-.308-.311c-2.153-33.179-3.691-68.5-3.691-68.5s53.344,14.315,129.961,143.4c2.152,3.653,8.611,3.038,23.613.3,19.308-3.653,58.265-3.346,117.111-11.879,0,0,2.152,1.521,2.768,7.918.923,14,2.426,18.269,2.426,18.269" fill="#f4be61"/><path d="M5405.328-1255.664c-10.413-4.56-51.2-23.734-90.73-67.268-3.083-3.654-6.433-7.306-9.517-11.265-2.454-2.743-4.908-29.836-6.731-58.146,7.362,7.3,93.183,90.117,106.979,136.679" fill="#f2a83d"/><path d="M5212.553-1686.194s-4.893-9.929-29.292-7.208-66.612,7.2-66.964,140.083c-.032,14.557-87.782,147.256,11.192,272.2l70.641-178.717,14.422-226.362" fill="#163560"/><path d="M5219.616-1684.457s-26.034-8.723-39.739,4.2-5.924,30.024-5.924,30.024l45.663-34.229" fill="#c65447"/><path d="M5301.812-1633.537s-.488-57-92.863-50.432a45.227,45.227,0,0,0-37.113,23.953c-10.375,20.166-14.9,55.666,18.671,112.584l111.306-86.1" fill="#163560"/><path d="M5184.9-1466.185l20.793,80.794,60.137,2.917,29.923-44.546c-27.974-21.059-31.937-57.99-31.547-79.9,0-.214.032-.429.032-.643a131.8,131.8,0,0,1,1.43-17.144l-42.691-12.905-32.489-9.825c2.989,24.623,2.794,42.385,1.462,54.91-2.145,19.585-7.05,26.339-7.05,26.339" fill="#e49963"/><path d="M5124.172-1048.331l218.209-.3s-27.153-145.292-12.068-192.905c15.053-47.626-.754-117.2-.754-117.2-21.906-51.7-27.515-100.1-37.254-102.634-5.345-1.4-9.674-4.266-14.92-5.312-85.723-17.01-155.376,13.96-155.376,13.96-19.25,47.987,21.939,84.03,23.939,192.387,1.968,106.507-21.775,212-21.775,212" fill="#e49963"/><path d="M5355.341-1038.276s-166.147,34.093-261.163-1.229c-5.224-2.119,14.718-73.358,28.518-122.079,6.735-24.053,11.959-42.613,11.63-45.054-3.351-66.373-16.559-123-22.669-166.83a251.8,251.8,0,0,1-3.384-31.662V-1410c-.3-15.833,1.84-28.617,7.359-39.275,10.416-19.177,66.531-19.489,66.531-19.489,5.52,6.4,35.845,27.4,72.018,27.1,36.469-.306,18.465-25.913,18.465-25.913,1.511.306,3.91.641,5.158.946a93.07,93.07,0,0,1,30.325,12.478c29.142,31.662,38.638,189.366,38.013,194.54-1.216,19.174,9.2,221.333,9.2,221.333" fill="#f4be61"/><path d="M5191.942-1492.521c25.809-13.725,65.83-14.38,72.258-14.393h.9s-.323-.226-.872-.643c-4.264-3.133-23.451-17.162-41.249-30.05l-32.495-9.823c3,24.62,2.778,42.386,1.453,54.909" fill="#d68d5d"/><path d="M5280.277-1505.727s-91.7,4.161-93.424-52.578-14.7-94.412,43.73-99.466c58.46-5.057,70.516,16.251,75.73,35.049s-2.249,114.449-26.036,116.994" fill="#e49963"/><path d="M5271-1635.373s39.256,26.82,32.953,57.917c0,0,19.464-10.157,17.636-39.8s-30.307-50.037-55.39-51.581a291.058,291.058,0,0,0-43.958.47l48.76,33" fill="#163560"/><path d="M5277.89-1645.218c16.272,8.558-50.96,15.759-55.085,42.97-4.093,27.214-36.183,37.628-36.183,37.628s-40.631-149.987,91.268-80.6" fill="#163560"/><path d="M5331.13-1273.009s-73.262,97.733-208.437,111.427c6.737-24.056,11.971-42.616,11.644-45.056-3.369-66.371-16.55-123-22.7-166.832a259.157,259.157,0,0,1-3.369-31.663V-1410c15.633,3.045,39.869,19.176,50.3,21.613,80.588,18.878,172.558,115.378,172.558,115.378" fill="#f2a83d"/><path d="M5291.271-1536.6s-.682,5.765-14.835,6.547c0,0-11.881.659-12.238-5.547,0,0,10.907-5.726,27.074-1" fill="#fff"/><path d="M5412.911-1295.927s-62.731,31.292-117.093,44.237c-15.674,3.723-30.751,6.363-43.6,6.96,0,0-58.48-17.866-103.112-79.959-86.209-119.926-19.66-132.864-19.66-132.864s57.617,35.686,138.944,149.305c2.855,3.972,10,3.065,28.493-.641,19.759-3.962,59.111-3.494,113.407-11.414,0,0,.93,2,1.462,8.4,1.229,14.12,1.162,15.973,1.162,15.973" fill="#f4be61"/><path d="M5570.262-1303.181s-38.787,18.146-80,31.118c-14.626,4.6-29.868,8.9-44.426,12.121-5.843-25.815-1.811-45.932,2.188-57.586,19.1-3.708,59.975-3.961,118.855-12.535l3.383,26.881" fill="#a86337"/><path d="M5552.166-1326.434s14.91-2.868,27.331-9.04c12.385-6.161,45.493-10.271,52.55-3.7,7.023,6.577-7.472,33.284-37.639,34.111-30.237.827-38.92,5.746-38.92,5.746l-3.321-27.119" fill="#a86337"/><path d="M5414.369-1294.293s-64.176,29.653-118.552,42.6c11.925-23.455,7.274-43.946,1.1-57.2,19.765-3.959,59.359-5.68,113.669-13.6,0,0,.631,4.185,1.2,10.586,1.229,14.121,2.591,17.612,2.591,17.612" fill="#b77446"/><path d="M4741.283-1046.212v-2.122H4513.524c-28.19,0-50.887,22.226-50.887,49.321,0,24.68,18.42,44.894,42.664,48.68v552.627H5361.73v-648.506H4741.283" fill="#aa443e"/><path d="M5434.716-1386.873V-1251h136.827v-135.877H5434.716" fill="#d86713"/><path d="M5476.932-1386.873V-1251h136.8v-135.876h-136.8" fill="#f1a34f"/><path d="M5476.917-1386.873l-42.2,25.4v-25.4h42.2" fill="#c95c12"/><path d="M5499.955-1357.48H5453.93l1.957-5.338-1.957-5.763h45.585l-2.8,5.976,3.239,5.125" fill="#ffd5ab"/><path d="M5476.939-1368.579v11.1h-23.017l1.949-5.339-1.949-5.763h23.017" fill="#c95c12"/><path d="M5499.955-1275.426H5453.93l1.957-5.345-1.957-5.76h45.585l-2.8,5.972,3.239,5.132" fill="#ffd5ab"/><path d="M5476.939-1286.533v11.109h-23.017l1.949-5.346-1.949-5.762h23.017" fill="#c95c12"/><path d="M5403.669-1320.783s15.882-3.065,29.168-9.651c13.252-6.579,48.592-10.966,56.077-3.945,7.52,7.024-7.958,35.531-40.195,36.411s-41.51,6.147-41.51,6.147l-3.541-28.962" fill="#b77446"/><path d="M4742.861-1046.209v648.5h856.414v-648.5H4742.861" fill="#c65447"/><path d="M5725.546-1048.333H4513.54c-28.2,0-50.905,22.228-50.905,49.32,0,27.4,22.7,49.323,50.905,49.323H5725.546c31.288,0,56.723-22.228,56.723-49.323s-25.435-49.32-56.723-49.32" fill="#e57970"/><path d="M4404.935-1337.013v136.589h153.708v-136.589H4404.935" fill="#8cb3ed"/><path d="M4433-1337.013v136.589h153.726v-136.589H4433" fill="#a6c7f9"/><path d="M4602.236-1357.542v157.121h193.691v-157.121H4602.236" fill="#8cb3ed"/><path d="M4637.662-1357.547v157.122H4831.33v-157.122H4637.662" fill="#a6c7f9"/><path d="M4663.882-771.958s-63.758,47.427-76.173,44.546c-12.444-2.88,46.585-51.186,46.585-51.186-22.219-10.68-91.256-3.986-91.256-3.986s-23,74.171-34.345,68.332c-11.371-5.854,23.7-64.639,23.7-64.639-24.743-1.494-55.085,16.879-55.085,16.879-41.538,32.8,2.728,84.454,2.728,84.454s-8.529,25.547-34.751,48.784c0,0-37.477,27.722-40.088,77.229l6.817.612s10.906-46.574,30.66-68.254c.754-.76,1.769-1.772,2.93-2.973,3.191-2.947,5.4-5.146,6.9-6.785,9.775-9.387,23.264-21.346,29.761-22.507a13.088,13.088,0,0,1-.29-3.255c.087,1.041.174,2.12.29,3.255,2.2,26.118,52.88,48.906,84.034,53.6s21.523-8.122,10.791-27.107-44.729-27.493-52.474-36.239,8.267-8.76,27.063-.189c18.768,8.575,21.32,31.441,51.429,45.855,30.139,14.425,75.448-35.548,75.448-35.548-24.018-1.213-58.276-27.278-57.028-35.252,1.219-7.986,58.159,13.761,67.906,14.8,9.718,1.041,31.879-11.066,35.3-50.278s-60.857-50.147-60.857-50.147" fill="#82b378"/><path d="M4325.226-742.517s70.438-39.44,37.565-92.962c0,0-26.293-32.865-54.447-41.319,0,0,15.021,79.812,0,81.695-15.048,1.88-10.355-90.146-10.355-90.146S4223.8-920.93,4194.7-918.117c0,0,46.006,77.946,30.986,76.067S4159-922.809,4159-922.809s-76.048-14.093-88.264,30.985,7.524,67.612,18.8,70.428,83.572,1.88,81.684,11.264c-1.861,9.4-50.7,24.427-77.935,15.975,0,0,30.041,74.184,69.494,70.425,39.426-3.759,51.642-28.173,76.075-30.052,24.405-1.88,42.23,4.692,30.042,11.267-12.216,6.572-53.53,2.16-73.243,18.92-19.74,16.774-35.678,27.1.943,34.612,36.595,7.505,102.341,2.813,115.5-25.36l13.133-28.173" fill="#a8d29f"/><path d="M4344.025-673.958c-19.726-36.627-18.786-68.561-18.786-68.561C4302.7-813.878,4105.5-877.744,4105.5-877.744c250.738,101.425,206.591,163.4,206.591,163.4,6.763,3.945,16.881,22.747,23.939,37.172.993,2.453,2.576,5.84,4.911,10.426.966,2.093,1.745,3.814,2.254,5,12.908,32.309,6.065,88.082,6.065,88.082l7.836,2.107c17.337-56.213-13.069-102.4-13.069-102.4" fill="#82b378"/><path d="M4437.288-796.9s-92.839-51.987-49.5-122.547c0,0,34.638-43.332,71.774-54.466,0,0-19.8,105.213,0,107.693,19.831,2.468,13.632-118.84,13.632-118.84s97.775-47.039,136.174-43.32c0,0-60.668,102.734-40.867,100.266s87.9-106.465,87.9-106.465,100.243-18.562,116.342,40.852-9.9,89.134-24.767,92.842c-14.837,3.719-110.144,2.48-107.676,14.851s66.838,32.188,102.74,21.053c0,0-39.6,97.786-91.6,92.839s-68.073-37.144-100.271-39.612c-32.171-2.48-55.7,6.187-39.6,14.854s70.569,2.841,96.541,24.931c26,22.108,47.036,35.723-1.2,45.629-48.3,9.907-134.94,3.7-152.274-33.428L4437.288-796.9" fill="#a8d29f"/><path d="M4726.945-975.157S4466.992-890.983,4437.268-796.9c0,0,1.247,42.081-24.737,90.36,0,0-40.078,60.879-17.226,134.988l10.3-2.775s-9.02-73.52,8-116.106c.7-1.572,1.711-3.813,2.958-6.56h0c3.132-6.081,5.191-10.559,6.525-13.8,9.251-19,22.62-43.772,31.523-48.972,0,0-58.173-81.692,272.336-215.386" fill="#82b378"/><path d="M4252.287-592.719c0,100.439,81.446,181.854,181.866,181.854a181.853,181.853,0,0,0,181.865-181.854H4252.287" fill="#f1a34f"/><path d="M4478.9-412.251a182.62,182.62,0,0,1-22.587,1.388c-100.432,0-181.849-81.428-181.849-181.854h45.174c0,92.787,69.492,169.333,159.262,180.467" fill="#ffb973"/><path d="M4596.1-424.039H4272.233a22.422,22.422,0,0,0-22.441,22.427h368.747a22.44,22.44,0,0,0-22.441-22.427" fill="#f1a34f"/><path d="M4246.312-592.72v5.575h373.835v-5.575H4246.312" fill="#d86713"/><path d="M2764.507-938.675l-36.143-135.173a9.627,9.627,0,0,0-11.776-6.8l-224.849,60.133a9.628,9.628,0,0,0-6.821,11.786l36.16,135.159a9.643,9.643,0,0,0,11.776,6.8L2757.7-926.9a9.666,9.666,0,0,0,6.8-11.773" fill="#f1a34f"/><path d="M2728.379-1073.855a9.621,9.621,0,0,0-11.771-6.8l-224.851,60.132a9.628,9.628,0,0,0-6.815,11.788l139.8,35.025,104.672-96.24-1.038-3.906" fill="#d86713"/><path d="M2747.965-944.916a3.876,3.876,0,0,0-4.738-2.733l-42.172,11.281a3.879,3.879,0,0,0-2.732,4.733,3.878,3.878,0,0,0,4.738,2.733l42.172-11.281a3.878,3.878,0,0,0,2.732-4.733" fill="#d86713"/><path d="M2180.177-798v400.892h400.889V-798H2180.177" fill="#d86713"/><path d="M2303.776-798V-397.1h400.887V-798H2303.776" fill="#f1a34f"/><path d="M2303.771-797.994l-123.612,74.932v-74.932h123.612" fill="#c95c12"/><path d="M2380.946-563.864H2225.527l6.544-18.159-6.544-19.6H2379.5l-9.451,20.333,10.9,17.426" fill="#ffd5ab"/><path d="M2303.25-601.626v37.76h-77.7l6.528-18.16-6.528-19.6h77.7" fill="#c95c12"/><path d="M3042.777-632.145v230.532h230.538V-632.145H3042.777" fill="#d86713"/><path d="M3113.866-632.146v230.534H3344.4V-632.146H3113.866" fill="#f1a34f"/><path d="M3113.857-632.146l-71.084,43.094v-43.094h71.084" fill="#c95c12"/><path d="M3205.166-583.17v181.545h181.553V-583.17H3205.166" fill="#4a75cb"/><path d="M3261.148-583.173v181.547H3442.7V-583.173H3261.148" fill="#699dee"/><path d="M3343.1-458.638l-67.369,13.453,6.844,34.239,67.369-13.453-6.844-34.239" fill="#ebf2f9"/><path d="M3293.809-536.9h-65.594l2.749-7.655-2.749-8.279H3293.2l-4,8.586,4.607,7.347" fill="#ebf2f9"/><path d="M3261.014-552.838V-536.9h-32.79l2.741-7.652-2.741-8.281h32.79" fill="#a6c7f9"/><path d="M3152.651-582.277h-77.52l3.249-9.054-3.249-9.773h76.8l-4.719,10.133,5.435,8.694" fill="#ffd5ab"/><path d="M3113.9-601.105v18.827H3075.14l3.248-9.053-3.248-9.773H3113.9" fill="#c95c12"/><path d="M3152.651-443.052h-77.52l3.249-9.052-3.249-9.789h76.8l-4.719,10.148,5.435,8.692" fill="#ffd5ab"/><path d="M3113.9-461.893v18.84H3075.14l3.248-9.053-3.248-9.787H3113.9" fill="#c95c12"/><path d="M2521.883-714.716v318.932h318.939V-714.716H2521.883" fill="#4a75cb"/><path d="M2620.239-714.719v318.932h318.927V-714.719H2620.239" fill="#699dee"/><path d="M2912.778-695.521l-76.417,15.255,7.758,38.827,76.4-15.255-7.74-38.827" fill="#ebf2f9"/><path d="M2662.587-664.214h-86.444l3.643-10.093-3.643-10.907h85.644l-5.26,11.307,6.06,9.693" fill="#ebf2f9"/><path d="M2619.36-685.21v21h-43.227l3.648-10.093-3.648-10.906h43.227" fill="#a6c7f9"/><path d="M2662.587-426.64h-86.444l3.643-10.108-3.643-10.907h85.644l-5.26,11.322,6.06,9.693" fill="#ebf2f9"/><path d="M2619.36-447.652v21.014h-43.227l3.648-10.108-3.648-10.907h43.227" fill="#a6c7f9"/><path d="M2503.565-1066.222H2380.721l5.161-14.347-5.161-15.507h121.692l-7.465,16.08,8.617,13.774" fill="#ebf2f9"/><path d="M2442.147-1096.074v29.854h-61.428l5.169-14.347-5.169-15.507h61.428" fill="#a6c7f9"/><path d="M5020-1843.534H4382.21v-22.433H5020v22.433" fill="#91b6ed"/><path d="M5060.354-2032H4231.761v-22.43h828.594V-2032" fill="#699dee"/><path d="M5020-1621.668H4382.21V-1644.1H5020v22.433" fill="#91b6ed"/><path d="M4382.21-1422.239v22.433H5020v-22.433H4382.21" fill="#91b6ed"/><path d="M4382.21-1200.374v22.427H5020v-22.427H4382.21" fill="#91b6ed"/><path d="M4404.218-1825.138V-1644.1h181.047v-181.042H4404.218" fill="#d86713"/><path d="M4460.046-1825.139V-1644.1h181.03v-181.042h-181.03" fill="#f1a34f"/><path d="M4460.039-1825.138,4404.22-1791.3v-33.839h55.819" fill="#c95c12"/><path d="M4531.747-1786.677V-1644.1h142.582v-142.576H4531.747" fill="#4a75cb"/><path d="M4575.712-1786.671V-1644.1h142.561v-142.576H4575.712" fill="#699dee"/><path d="M4645.445-1661.291l-52.9,10.568-5.386-26.886,52.924-10.568,5.358,26.887" fill="#ebf2f9"/><path d="M4601.37-1749.636h-51.518l2.174-6.016-2.174-6.5h51.038l-3.133,6.741,3.613,5.776" fill="#ebf2f9"/><path d="M4575.594-1762.146v12.517h-25.741l2.162-6.018-2.162-6.5h25.741" fill="#a6c7f9"/><path d="M4490.509-1786.311h-60.884l2.562-7.11-2.562-7.683h60.305l-3.691,7.967,4.27,6.827" fill="#ffd5ab"/><path d="M4460.06-1801.1v14.795h-30.427l2.545-7.111-2.545-7.683h30.427" fill="#c95c12"/><path d="M4490.509-1676.982h-60.884l2.562-7.111-2.562-7.683h60.305l-3.691,7.967,4.27,6.827" fill="#ffd5ab"/><path d="M4460.06-1691.772v14.795h-30.427l2.545-7.111-2.545-7.683h30.427" fill="#c95c12"/><path d="M4492.163-2008.218v142.576h142.568v-142.576H4492.163" fill="#4a75cb"/><path d="M4536.1-2008.215v142.577h142.6v-142.577H4536.1" fill="#699dee"/><path d="M4600.478-1910.409l-52.924,10.565,5.4,26.886,52.9-10.565-5.369-26.886" fill="#ebf2f9"/><path d="M4561.772-1971.866h-51.523l2.155-6.017-2.155-6.5h51.019l-3.106,6.742,3.611,5.776" fill="#ebf2f9"/><path d="M4536.018-1984.388v12.52h-25.769l2.17-6.019-2.17-6.5h25.769" fill="#a6c7f9"/><path d="M4697.625-1966.736v100.748H4798.36v-100.748H4697.625" fill="#d86713"/><path d="M4728.7-1966.74v100.749h100.737V-1966.74H4728.7" fill="#f1a34f"/><path d="M4728.684-1966.735l-31.069,18.831v-18.831h31.069" fill="#c95c12"/><path d="M4745.635-1944.936h-33.889l1.427-3.96-1.427-4.274h33.569l-2.067,4.434,2.388,3.8" fill="#ffd5ab"/><path d="M4728.706-1953.176v8.233h-16.942l1.421-3.957-1.421-4.276h16.942" fill="#c95c12"/><path d="M4745.635-1884.1h-33.889l1.427-3.96-1.427-4.274h33.569l-2.067,4.434,2.388,3.8" fill="#ffd5ab"/><path d="M4728.706-1892.335v8.23h-16.942l1.421-3.957-1.421-4.273h16.942" fill="#c95c12"/><path d="M4405.9-1540.6v118.453h118.466V-1540.6H4405.9" fill="#4a75cb"/><path d="M4442.458-1540.606v118.449H4560.9v-118.449H4442.458" fill="#699dee"/><path d="M4500.4-1437.018l-43.956,8.777L4452-1450.578l43.927-8.78,4.473,22.339" fill="#ebf2f9"/><path d="M4463.754-1510.406h-42.8l1.808-5-1.808-5.4h42.392l-2.6,5.6,3.012,4.8" fill="#ebf2f9"/><path d="M4442.369-1520.811v10.4h-21.394l1.8-5-1.8-5.4h21.394" fill="#a6c7f9"/><path d="M4575.249-1540.607v118.452h118.466v-118.452H4575.249" fill="#4a75cb"/><path d="M4611.8-1540.6v118.45h118.43V-1540.6H4611.8" fill="#699dee"/><path d="M4669.721-1437.016l-43.947,8.778-4.469-22.337,43.947-8.778,4.469,22.337" fill="#ebf2f9"/><path d="M4633.1-1510.411h-42.807l1.819-5-1.819-5.4H4632.7l-2.615,5.6,3.013,4.8" fill="#ebf2f9"/><path d="M4611.693-1520.809v10.4H4590.3l1.783-5-1.783-5.4h21.39" fill="#a6c7f9"/><path d="M4735.752-1730.484v86.384h86.384v-86.384h-86.384" fill="#d86713"/><path d="M4762.375-1730.484v86.385h86.385v-86.385h-86.385" fill="#f1a34f"/><path d="M4762.37-1730.482l-26.617,16.148v-16.148h26.617" fill="#c95c12"/><path d="M4796.58-1712.127v68.03h68.045v-68.03H4796.58" fill="#4a75cb"/><path d="M4817.56-1712.126v68.03H4885.6v-68.03H4817.56" fill="#699dee"/><path d="M4850.846-1651.937l-25.236,5.041-2.559-12.829,25.236-5.041,2.559,12.829" fill="#ebf2f9"/><path d="M4829.809-1694.087h-24.593l1.037-2.871-1.037-3.1h24.356l-1.481,3.218,1.718,2.755" fill="#ebf2f9"/><path d="M4817.529-1700.065v5.973h-12.295l1.035-2.87-1.035-3.1h12.295" fill="#a6c7f9"/><path d="M4776.932-1711.6h-29.042l1.2-3.394-1.2-3.663h28.749l-1.758,3.8,2.052,3.259" fill="#ffd5ab"/><path d="M4762.392-1718.651v7.059h-14.521l1.227-3.392-1.227-3.667h14.521" fill="#c95c12"/><path d="M4776.932-1659.427h-29.042l1.2-3.394-1.2-3.666h28.749l-1.758,3.8,2.052,3.259" fill="#ffd5ab"/><path d="M4762.392-1666.484v7.059h-14.521l1.227-3.4-1.227-3.664h14.521" fill="#c95c12"/><path d="M4929.041-1579.783l-36.41,158.056h100.561l36.411-158.056H4929.041" fill="#699dee"/><path d="M4863.869-1579.782l-36.4,158.056h100.6l36.4-158.056h-100.6" fill="#fff"/><path d="M4891.675-1495.2l.03,68.67a4.736,4.736,0,0,1-4.711,4.721l-114.25.081a4.75,4.75,0,0,1-4.711-4.718l-.061-68.667a4.74,4.74,0,0,1,4.741-4.724l114.22-.081a4.753,4.753,0,0,1,4.741,4.718" fill="#f1a34f"/><path d="M4891.662-1495.2v1.984l-61.821,32.393-61.851-34.289a4.717,4.717,0,0,1,4.711-4.727l114.219-.078a4.735,4.735,0,0,1,4.741,4.718" fill="#d86713"/><path d="M4882.753-1433.475l-21.426.015a1.917,1.917,0,0,0-1.917,1.9,1.917,1.917,0,0,0,1.917,1.9l21.426-.015a1.9,1.9,0,0,0,1.888-1.9,1.89,1.89,0,0,0-1.888-1.9" fill="#d86713"/><path d="M4870.564-1495.706a4.722,4.722,0,0,0-4.721-4.715l-114.236.078a4.708,4.708,0,0,0-4.691,4.724l.03,68.67a4.745,4.745,0,0,0,4.721,4.715l114.235-.081a4.749,4.749,0,0,0,4.722-4.721l-.06-68.67" fill="#f1a34f"/><path d="M4870.58-1495.707v1.984l-61.824,32.391-61.853-34.288a4.732,4.732,0,0,1,4.721-4.724l114.234-.078a4.72,4.72,0,0,1,4.721,4.715" fill="#d86713"/><path d="M4861.672-1433.987l-21.424.015a1.89,1.89,0,0,0-1.88,1.9,1.887,1.887,0,0,0,1.88,1.9l21.424-.018a1.912,1.912,0,0,0,1.909-1.9,1.912,1.912,0,0,0-1.909-1.9" fill="#d86713"/></g></g></g></svg>